<svg xmlns="http://www.w3.org/2000/svg" xmlns:xlink="http://www.w3.org/1999/xlink" version="1.1" x="0px" y="0px" viewBox="0 0 100 125" enable-background="new 0 0 100 100" xml:space="preserve"><g><path d="M91.358,33.554l1.375-0.218c1.09-0.172,1.834-1.195,1.663-2.286c-0.981-6.256-3.876-11.939-8.373-16.436   c-4.506-4.496-10.188-7.39-16.432-8.37c-1.092-0.169-2.114,0.573-2.286,1.664l-0.161,1.019C61.713,6.654,55.959,5.5,50,5.5   c-5.899,0-11.599,1.132-16.983,3.359l-0.151-0.953c-0.173-1.09-1.196-1.832-2.286-1.662c-6.248,0.98-11.928,3.875-16.423,8.372   c-4.509,4.509-7.404,10.193-8.373,16.438c-0.169,1.09,0.576,2.111,1.666,2.282l1.209,0.192C6.564,38.758,5.5,44.286,5.5,50   c0,24.538,19.963,44.5,44.5,44.5S94.5,74.538,94.5,50C94.5,44.288,93.44,38.769,91.358,33.554z M83.196,17.444   c3.417,3.417,5.766,7.625,6.863,12.265l-15.276,2.426l-6.268-6.276l2.416-15.277C75.563,11.678,79.771,14.027,83.196,17.444z    M16.984,17.444c3.417-3.417,7.622-5.766,12.255-6.863l0.003,0.018L29.238,10.6l2.426,15.257l-6.276,6.277l-15.037-2.397   l-0.002,0.005l-0.23-0.037C11.208,25.078,13.559,20.87,16.984,17.444z M25.237,36.161l1.535,0.245l9.163-9.163l-2.271-14.314   C38.82,10.652,44.308,9.5,50,9.5c5.753,0,11.296,1.178,16.499,3.503l-1.474,9.319l-0.78,4.92l9.152,9.164l1.591-0.253l12.314-1.955   c1.865,4.381,2.92,9.01,3.149,13.802H61.276c-0.95-5.368-5.639-9.461-11.276-9.461S39.675,42.632,38.724,48H9.549   c0.231-4.796,1.292-9.433,3.165-13.828L25.237,36.161z M58.462,50c0,4.666-3.796,8.461-8.462,8.461S41.538,54.666,41.538,50   s3.796-8.461,8.462-8.461S58.462,45.334,58.462,50z M50,90.5C28.339,90.5,10.597,73.406,9.551,52h29.174   c0.95,5.368,5.639,9.461,11.276,9.461S60.325,57.368,61.276,52H90.45C89.403,73.406,71.661,90.5,50,90.5z"/><path d="M50,43.944c-3.34,0-6.057,2.717-6.057,6.056S46.66,56.056,50,56.056s6.057-2.717,6.057-6.056S53.34,43.944,50,43.944z    M50,54.056c-2.237,0-4.057-1.82-4.057-4.056s1.819-4.056,4.057-4.056s4.057,1.82,4.057,4.056S52.237,54.056,50,54.056z"/></g></svg>